<?xml version="1.0" encoding="UTF-8"?>
<svg xmlns="http://www.w3.org/2000/svg" xmlns:xlink="http://www.w3.org/1999/xlink" width="408.1pt" height="441.5pt" viewBox="0 0 408.1 441.5" version="1.1">
<g id="surface1">
<path style=" stroke:none;fill-rule:evenodd;fill:rgb(89.0625%,0%,8.616638%);fill-opacity:1;" d="M 252.035156 163.214844 L 304.070313 253.335938 L 200.007813 253.335938 Z M 252.035156 163.214844 "/>
<path style=" stroke:none;fill-rule:evenodd;fill:rgb(10.594177%,9.812927%,9.423828%);fill-opacity:1;" d="M 310.695313 310.503906 L 386.296875 441.453125 L 408.152344 403.601563 L 332.550781 272.652344 L 181.34375 272.65625 L 159.492188 310.507813 Z M 252.371094 374.242188 L 282.640625 321.808594 L 304.164063 321.808594 L 315.183594 340.882813 L 285.035156 393.097656 Z M 151.253906 223.914063 L 226.859375 92.96875 L 248.710938 130.816406 L 173.109375 261.769531 L 21.902344 261.761719 L 0.046875 223.914063 Z M 92.933594 160.179688 L 123.199219 212.609375 L 144.734375 212.605469 L 155.746094 193.539063 L 125.59375 141.316406 Z M 300.078125 130.890625 L 375.683594 261.839844 L 331.976563 261.839844 L 256.371094 130.890625 L 331.976563 -0.0546875 L 375.683594 -0.0546875 Z M 384.4375 112.246094 L 323.894531 112.246094 L 313.132813 130.890625 L 324.144531 149.964844 L 384.4375 149.964844 Z M 384.4375 112.246094 "/>
</g>
</svg>
